PathFileType	4	(X/Y/Z)	RBDS014\RBDS014runT35.trc
DataRate	CameraRate	NumFrames	NumMarkers	Units	OrigDataRate	OrigDataStartFrame	OrigNumFrames
150.000000	150.000000	4	33	mm	150.000000	562	4500
Frame#	Time	L.ASIS			L.Heel.Bottom			L.Heel.Lateral			L.Heel.Top			L.Iliac.Crest			L.MT1			L.MT5			L.PSIS			L.Shank.Bottom.Lateral			L.Shank.Bottom.Medial			L.Shank.Top.Lateral			L.Shank.Top.Medial			L.Thigh.Bottom.Lateral			L.Thigh.Bottom.Medial			L.Thigh.Top.Lateral			L.Thigh.Top.Medial			R.ASIS			R.ASY			R.Heel.Bottom			R.Heel.Lateral			R.Heel.Top			R.Iliac.Crest			R.MT1			R.MT5			R.PSIS			R.Shank.Bottom.Lateral			R.Shank.Bottom.Medial			R.Shank.Top.Lateral			R.Shank.Top.Medial			R.Thigh.Bottom.Lateral			R.Thigh.Bottom.Medial			R.Thigh.Top.Lateral			R.Thigh.Top.Medial			
		X1	Y1	Z1	X2	Y2	Z2	X3	Y3	Z3	X4	Y4	Z4	X5	Y5	Z5	X6	Y6	Z6	X7	Y7	Z7	X8	Y8	Z8	X9	Y9	Z9	X10	Y10	Z10	X11	Y11	Z11	X12	Y12	Z12	X13	Y13	Z13	X14	Y14	Z14	X15	Y15	Z15	X16	Y16	Z16	X17	Y17	Z17	X18	Y18	Z18	X19	Y19	Z19	X20	Y20	Z20	X21	Y21	Z21	X22	Y22	Z22	X23	Y23	Z23	X24	Y24	Z24	X25	Y25	Z25	X26	Y26	Z26	X27	Y27	Z27	X28	Y28	Z28	X29	Y29	Z29	X30	Y30	Z30	X31	Y31	Z31	X32	Y32	Z32	X33	Y33	Z33	

563	3.746666666666667	2130.591614150262	1057.233341627636	900.5878925440152	2063.417550069613	30.61888946327073	987.21021695336	2087.504852357168	53.21181753909258	947.3038302400216	2075.750991766336	80.11427644593158	990.5676093836107	2054.202679167869	1113.355042329849	860.357740977164	2300.425782001902	44.2095803239201	1029.344892076238	2259.727034302417	37.19487059600785	911.0227673651556	1954.898786176376	1072.599482143042	979.1235526692562	2165.972720504633	178.7962476762015	917.5684897788599	2121.065151104375	191.8780841679818	947.3190050124241	2171.709045688116	256.0213140924866	894.6907741704563	2128.937403828698	269.6317797388157	924.6222440701188	2177.384221503034	696.7081680383642	844.0226024999998	2124.891281509757	669.8508183364836	885.6542890027058	2117.641911125269	789.2323823060498	832.7376170683442	2069.312841007759	765.1781898933591	873.8330631332148	2152.87872095678	1044.548832929139	1139.861209162376	1528.225889982169	443.7428570742824	1059.315388932494	1522.912222828123	645.2269699956324	1006.498875262097	1532.125563268452	625.801859457709	1052.604553927572	1569.48492570728	623.9100255044165	1016.323115601464	2108.291643272009	1119.383047846091	1164.91591153064	1479.452138628982	412.1143271623814	1007.044787606708	1462.429133785334	470.3494916732815	1110.926297653444	1974.010698350994	1072.631537931462	1074.981776307289	1653.911917973699	566.9226245281983	1100.042112232233	1666.900098641874	594.7855818636764	1058.910926633622	1735.701081805387	567.5832224881635	1124.869950936804	1744.261957272939	598.5408105636599	1083.271387397596	2054.380059655726	626.4126192535683	1182.330239458749	1991.941003021819	630.6484331070483	1143.859341536143	2048.157303875394	734.5430886262855	1197.781249235498	1990.110214126473	739.4095196476208	1159.519254215105	
564	3.753333333333333	2127.008091803538	1054.365014255167	900.6543369514923	2040.19611706748	31.41913593240494	987.4311862972356	2064.352462767062	54.16085533472449	947.5767076281909	2052.740530020236	80.93120391614441	990.9262175074949	2050.004341970942	1108.103068398021	860.538025751596	2277.212876834221	44.38672244589983	1029.465749022378	2236.285926055922	37.5872836502766	911.1361857142072	1951.83077440453	1067.954571729812	980.92607782868	2146.990833860315	178.7866398492855	917.8082336172338	2102.616514444515	193.6650996214094	947.5754531682848	2155.574889534775	255.7357306147936	894.6149161080037	2113.330760969774	271.0553610072928	924.6025696742555	2171.815249365255	694.1117903571852	842.7133102231919	2119.563295184154	667.7319547607187	884.982114721827	2112.800873518559	787.105837779331	831.8655105775126	2064.636358108665	763.4949556452572	873.4633601481656	2150.548193476537	1039.022285392196	1139.91279640177	1545.813025924886	449.1951663046954	1060.084051467221	1540.745369757567	651.1270803863937	1009.305058963945	1550.498390087138	631.3379487301686	1055.184605158345	1587.358037544065	629.6329625024416	1018.520559190666	2105.680984759535	1113.40479347407	1166.005759306835	1496.171474142051	418.2987477036115	1008.442414781861	1480.834902151478	475.8410849066648	1113.163819224786	1971.450799087465	1067.558316729493	1076.152908602788	1672.550199474905	569.7132039791989	1100.812378416552	1685.956548264618	597.525031428551	1059.867842577821	1754.644477065943	568.0388180252399	1124.89807521478	1763.622636002774	598.9804049343768	1083.525979414183	2065.617639693241	620.3333683286803	1180.805555824997	2002.664274316514	622.4633559554874	1143.04849224614	2055.838613741095	728.1984776026044	1196.779237285095	1997.082282731281	731.0476012030781	1159.31503517261	
565	3.76	2123.400488273185	1052.156460789084	900.5986953862441	2017.026769511323	32.0313265782026	987.4181685112374	2041.182501239161	54.88142860220994	947.5569640289044	2029.59727107838	81.58305557772597	990.9083794709933	2045.523324822458	1103.794914730378	860.7859487643295	2253.854123473726	45.1374245598345	1029.333117791598	2212.792183453251	38.19196523236786	911.0766080957331	1948.834276880634	1064.299316606476	982.7348515205556	2127.452557427652	178.8488768473928	917.6890009788789	2083.640957374739	195.3440421137738	947.4961674810987	2138.672601238636	255.4538385232352	894.3012209571967	2096.960563400885	272.3045548289822	924.3388587196446	2165.667673038038	691.7481755289622	841.5880319030422	2113.371671219286	665.9217154539461	884.1580330589849	2107.694967063012	785.3872951201688	831.1011810411636	2059.472037854161	762.3049278782569	872.9581671167672	2147.966206463625	1034.075053010566	1139.98814487918	1564.41997574374	453.1215113935851	1060.915679723443	1558.319871598159	655.4743166902786	1012.509258841559	1568.840853360091	635.3455097019707	1058.113283661432	1605.082132256656	634.0606699082655	1021.031065808914	2102.831915957108	1108.218724585581	1167.020176265826	1513.974478142391	422.7150526962741	1009.98311555081	1500.231604626511	479.3133507582431	1115.647266793886	1968.817134249604	1063.390419422454	1077.32540751397	1691.577394779276	571.784523256058	1101.596508849229	1705.200977703168	599.4687754156826	1060.713182765017	1773.956468871475	568.1927715336554	1124.721165081397	1783.158915891503	599.031826471651	1083.44945474628	2077.314222351193	615.3396573030752	1179.173152094742	2013.918897433952	615.2346012585971	1142.139312713637	2063.874720515229	722.8004878708667	1195.613449192105	2004.457661410164	723.4971681600765	1159.000975615335	
566	3.766666666666667	2119.87132953725	1050.561793862528	900.4532079629449	1993.866123478299	32.47404032441117	987.2028441943158	2017.979074567632	55.37058670150029	947.2832807796556	2006.350870602003	82.0811782665191	990.5664309708121	2040.949003642901	1100.536706724469	861.0712395276576	2230.414217945764	46.13194776189852	1028.991466858358	2189.267581109931	38.79868873076902	910.8570113640478	1945.972846232762	1061.701943076792	984.4475736185177	2107.447200010913	178.8628677166431	917.2521172911025	2064.188218344013	196.7874700816647	947.0856513270136	2121.082327429291	255.0701442074261	893.7716881981621	2079.870413390614	273.2699843354315	923.8168031397955	2158.927031058516	689.573010233269	840.6356445421332	2106.285813518689	664.3818180348488	883.150761226391	2102.310835912656	784.0302205576769	830.4353773984679	2053.806877705835	761.5665156909733	872.3078756410431	2145.194604924458	1029.855512770239	1140.116872335536	1583.828877098066	455.5154054508321	1061.73997760528	1575.445267115178	658.2767255481543	1016.111037267259	1586.953505536099	637.8208040257706	1061.372735705144	1622.464755305938	637.1851490809204	1023.841223902813	2099.745219092661	1103.991563249981	1167.944063362778	1532.647830615919	425.3666163832747	1011.546711752871	1520.395643103908	480.7431743184621	1118.265860924764	1966.161316213544	1060.190672215013	1078.432694552208	1710.811103488765	573.1542865518448	1102.404589254762	1724.43698447539	600.6742889453895	1061.467348328138	1793.458217303139	568.0955589116705	1124.385951469731	1802.688410664435	598.7897824693515	1083.097659062456	2089.415431728714	611.5713821752372	1177.465621945819	2025.687836157926	609.0998983812183	1141.121587894759	2072.199355722274	718.4699133114054	1194.299671081382	2012.21739775719	716.8809612666647	1158.555705212128	
